<?xml version="1.0" encoding="UTF-8"?>
<svg id="Layer_1" data-name="Layer 1" xmlns="http://www.w3.org/2000/svg" viewBox="0 0 617.16 757.45">
  <defs>
    <style>
      .cls-1 {
        fill: #bf4b37;
      }
    </style>
  </defs>
  <g>
    <path class="cls-1" d="m67.06,611.21v12.55h21.14v9.17h-21.14v13.46h24.36v9.66h-36.08v-54.49h36.08v9.66h-24.36Z"/>
    <path class="cls-1" d="m168.45,656.05h-11.56l.08-28.73c0-2.48.25-6.03.33-6.52l-.33-.08c-.17.66-1.07,3.72-1.73,5.12l-13.13,30.55h-6.27l-13.46-30.88c-.83-1.98-1.49-4.38-1.57-4.79l-.41.08c.17.5.41,4.13.41,6.52l.08,28.73h-11.48v-54.49h12.47l13.29,28.9c1.57,3.47,3.47,8.34,3.8,9.58h.33c.25-1.24,2.23-6.11,3.8-9.66l13.13-28.82h12.22v54.49Z"/>
    <path class="cls-1" d="m197.34,611.21v12.55h21.14v9.17h-21.14v13.46h24.36v9.66h-36.08v-54.49h36.08v9.66h-24.36Z"/>
    <path class="cls-1" d="m283.3,656.05s-2.15.58-6.03.58c-16.6,0-12.05-19.24-24.36-19.24h-2.48v18.66h-11.72v-54.49h18.49c14.2,0,21.8,5.61,21.8,18.41,0,7.6-4.05,12.71-10.98,15.36,5.86,2.72,6.03,11.89,12.88,11.89.91,0,1.65-.17,1.65-.17l.74,9Zm-27.66-26.92c7.02,0,11.81-3.22,11.81-9.08s-3.96-9.25-10.9-9.25h-6.11v18.33h5.2Z"/>
    <path class="cls-1" d="m339.36,656.05h-7.93c-.17-.58-.58-2.72-.83-6.03-3.14,4.21-8.26,6.61-15.19,6.61-14.7,0-24.6-10.9-24.6-27.82s10.73-27.83,25.68-27.83c16.35,0,22.21,11.15,22.21,19.49l-10.73,1.65c0-5.04-3.14-10.98-11.31-10.98s-13.95,6.52-13.95,17.67,5.61,18.08,14.7,18.08c7.76,0,11.81-3.96,12.05-9.99h-14.28v-7.43h24.19v26.59Z"/>
    <path class="cls-1" d="m366.93,611.21v12.55h21.14v9.17h-21.14v13.46h24.36v9.66h-36.08v-54.49h36.08v9.66h-24.36Z"/>
    <path class="cls-1" d="m452.96,656.05h-11.15l-17.59-26.26c-2.15-3.3-4.95-8.01-6.28-10.16l-.5.25c.33,1.24.41,5.45.41,9.83l.08,26.34h-11.31v-54.49h10.4l18.41,27.58c2.81,4.21,5.28,8.67,6.19,10.32l.5-.25c-.25-1.49-.5-5.61-.5-10.16l-.08-27.49h11.39v54.49Z"/>
    <path class="cls-1" d="m513.14,621.29l-10.82,1.65c0-5.04-3.05-11.81-11.23-11.81s-14.04,6.6-14.04,17.67c0,12.55,7.51,17.67,15.6,17.67,7.02,0,11.72-4.62,13.95-7.76l6.94,7.27c-2.39,3.47-9.08,10.65-21.22,10.65-16.18,0-27.08-10.57-27.08-27.82s10.73-27.83,25.68-27.83c16.35,0,22.21,11.56,22.21,20.31Z"/>
    <path class="cls-1" d="m536.92,611.21v12.55h21.14v9.17h-21.14v13.46h24.36v9.66h-36.08v-54.49h36.08v9.66h-24.36Z"/>
    <path class="cls-1" d="m205.46,681.8l-4.09.67c0-3-2.09-7.46-7.75-7.46s-9.84,4.42-9.84,12.17c0,8.65,5.09,12.17,10.6,12.17,4.09,0,7.08-2.47,8.75-4.75l2.61,2.66c-.95,1.33-4.52,5.89-11.46,5.89-8.84,0-14.88-5.89-14.88-15.97s5.89-15.97,14.16-15.97c8.79,0,11.84,6.51,11.88,10.6Z"/>
    <path class="cls-1" d="m243.28,687.17c0,9.79-6.13,15.97-14.73,15.97s-14.73-6.18-14.73-15.97,6.18-15.97,14.73-15.97,14.73,6.18,14.73,15.97Zm-4.37,0c0-7.46-4.28-12.17-10.36-12.17s-10.36,4.71-10.36,12.17,4.33,12.17,10.36,12.17,10.36-4.71,10.36-12.17Z"/>
    <path class="cls-1" d="m269.64,695.06h-13.17l-2.9,7.79h-4.47l11.79-31.37h4.33l11.79,31.37h-4.47l-2.9-7.79Zm-1.33-3.57l-4.23-11.36c-.33-.9-.67-2.04-1-3.28h-.09c-.33,1.24-.67,2.38-1,3.28l-4.18,11.36h10.5Z"/>
    <path class="cls-1" d="m308.92,681.8l-4.09.67c0-3-2.09-7.46-7.75-7.46s-9.84,4.42-9.84,12.17c0,8.65,5.09,12.17,10.6,12.17,4.09,0,7.08-2.47,8.75-4.75l2.61,2.66c-.95,1.33-4.52,5.89-11.46,5.89-8.84,0-14.88-5.89-14.88-15.97s5.89-15.97,14.16-15.97c8.79,0,11.83,6.51,11.88,10.6Z"/>
    <path class="cls-1" d="m344.51,671.48v31.37h-4.33v-14.45h-16.87v14.45h-4.33v-31.37h4.33v13.26h16.87v-13.26h4.33Z"/>
    <path class="cls-1" d="m356.63,671.48h4.33v31.37h-4.33v-31.37Z"/>
    <path class="cls-1" d="m397.67,702.85h-4.71l-12.45-19.68c-1.24-2-3.09-5.28-3.33-5.8l-.24.14c.14.43.29,3.09.29,5.61l.09,19.73h-4.33v-31.37h4.8l12.45,19.87c1.95,3.14,2.8,4.94,3.18,5.7l.29-.14c-.05-.67-.29-2.99-.29-5.66l-.09-19.77h4.33v31.37Z"/>
    <path class="cls-1" d="m434.76,702.85h-2.61c-.14-.48-.48-2.23-.67-4.42-1.76,3.23-5.18,4.71-9.46,4.71-8.27,0-13.83-6.37-13.83-15.97s5.89-15.97,14.12-15.97c8.79,0,11.88,6.08,11.88,10.12l-3.99.67c0-2.99-2.19-6.99-7.84-6.99s-9.79,4.37-9.79,12.17c0,7.27,3.8,12.17,10.08,12.17,5.7,0,8.56-3.61,8.56-7.7v-.67h-10.03v-3.61h13.59v15.5Z"/>
  </g>
  <path class="cls-1" d="m308.44,55.84c-140.03,0-253.95,113.92-253.95,253.95s113.92,253.95,253.95,253.95,253.95-113.92,253.95-253.95S448.47,55.84,308.44,55.84Zm-72.26,127.64c10.36,0,18.76,8.4,18.76,18.76s-8.4,18.76-18.76,18.76-18.76-8.4-18.76-18.76,8.4-18.76,18.76-18.76Zm-75.37-27.56c16.59,43.21,51.56,77.43,95.94,92.73.91,8.25,1.55,16.54,1.91,24.86-32.39-9.28-61.76-27.48-84.73-52.9-12.53-13.86-22.71-29.42-30.35-46.09,5.37-6.54,11.13-12.75,17.23-18.6Zm265.26,49.5c13.2-14.52,23.44-31.17,30.42-49.11,6.1,5.89,11.85,12.13,17.22,18.7-7.69,16.64-17.92,32.16-30.49,45.99-23.27,25.61-53.04,43.82-85.83,52.91.34-8.32.97-16.59,1.86-24.8,25.41-8.53,48.43-23.47,66.82-43.7Zm-26.61-3.18c0,10.36-8.4,18.76-18.76,18.76s-18.76-8.4-18.76-18.76,8.4-18.76,18.76-18.76,18.76,8.4,18.76,18.76Zm-164.61,307.82c-7.39-2.72-14.59-5.86-21.57-9.35,18.95-28.8,33.83-59.88,44.36-92.5-32.86-3.11-64.02-15-90.68-34.75-28.94-21.44-50.68-50.6-62.86-84.33l-5.68-15.72,16.72.2c36.87.45,72.24,11.88,102.3,33.06,21.24,14.97,38.81,34.07,51.84,56.11,4.59-23.94,6.96-48.5,6.96-73.41,0-63.35-15.19-124.36-43.82-178.89,7.28-2.79,14.75-5.2,22.39-7.18,29.15,56.9,44.6,120.3,44.6,186.07,0,79.46-22.54,155.45-64.56,220.71Zm214.28-136.61c-26.67,19.76-57.84,31.65-90.71,34.76,10.57,32.74,25.52,63.92,44.56,92.8-7,3.47-14.21,6.59-21.61,9.29-42.12-65.31-64.71-141.39-64.71-220.95,0-65.85,15.49-129.31,44.69-186.26,7.65,1.96,15.13,4.34,22.43,7.11-28.71,54.6-43.95,115.7-43.95,179.15,0,24.93,2.37,49.5,6.96,73.45,13.03-22.05,30.61-41.17,51.86-56.15,30.06-21.18,65.43-32.61,102.3-33.06l16.72-.2-5.68,15.72c-12.18,33.73-33.92,62.89-62.86,84.33Zm-268.38-18.62c-20.32-15.06-36.57-34.47-47.68-56.8,25.54,3.24,49.8,12.62,71.02,27.57,21.71,15.3,39.05,35.51,50.74,59.01-26.81-3.4-52.18-13.56-74.07-29.78Zm74.07,29.78c-26.81-3.4-52.18-13.56-74.07-29.78-20.32-15.06-36.57-34.47-47.68-56.8,25.54,3.24,49.8,12.62,71.02,27.57,21.71,15.3,39.05,35.51,50.74,59.01Zm106.44,0c26.81-3.4,52.18-13.56,74.07-29.78,20.32-15.06,36.57-34.47,47.68-56.8-25.54,3.24-49.8,12.62-71.02,27.57-21.71,15.3-39.05,35.51-50.74,59.01Z"/>
</svg>