<svg width="309" height="309" viewBox="0 0 309 309" fill="none" xmlns="http://www.w3.org/2000/svg">
<circle cx="154.5" cy="154.5" r="154.5" fill="black"/>
<circle cx="185.041" cy="145.517" r="84.436" fill="url(#paint0_linear_14_2)"/>
<rect x="53.8955" y="132.942" width="132.942" height="132.942" fill="url(#paint1_linear_14_2)"/>
<path d="M118.801 51.5461C119.152 50.1493 119.879 48.9232 120.874 48.0512C121.868 47.1792 123.078 46.7084 124.32 46.7093H170.308C171.218 46.7101 172.115 46.9643 172.925 47.4509C173.735 47.9375 174.435 48.6427 174.968 49.5083C175.5 50.3739 175.849 51.3753 175.986 52.4299C176.123 53.4846 176.045 54.5624 175.757 55.5745L155.293 127.548H199.05C200.126 127.547 201.182 127.9 202.095 128.567C203.009 129.235 203.744 130.189 204.217 131.322C204.69 132.456 204.883 133.722 204.772 134.976C204.661 136.231 204.252 137.425 203.591 138.42L123.113 259.678C122.288 260.926 121.116 261.795 119.8 262.134C118.485 262.472 117.11 262.259 115.915 261.531C114.72 260.803 113.781 259.606 113.262 258.149C112.743 256.692 112.677 255.069 113.076 253.561L133.782 174.703H95.5775C94.6838 174.704 93.8023 174.46 93.0029 173.992C92.2036 173.523 91.5085 172.843 90.9728 172.005C90.4371 171.166 90.0756 170.193 89.917 169.162C89.7583 168.132 89.807 167.072 90.059 166.067L118.801 51.5461Z" fill="url(#paint2_linear_14_2)"/>
<defs>
<linearGradient id="paint0_linear_14_2" x1="185.041" y1="61.0814" x2="185.041" y2="229.953" gradientUnits="userSpaceOnUse">
<stop stop-color="#6366F1"/>
<stop offset="1"/>
</linearGradient>
<linearGradient id="paint1_linear_14_2" x1="120.366" y1="132.942" x2="120.366" y2="265.884" gradientUnits="userSpaceOnUse">
<stop stop-color="#16A34A"/>
<stop offset="1"/>
</linearGradient>
<linearGradient id="paint2_linear_14_2" x1="147.314" y1="46.7093" x2="147.314" y2="262.291" gradientUnits="userSpaceOnUse">
<stop stop-color="#FACC15"/>
<stop offset="1" stop-color="#F8FAFC"/>
</linearGradient>
</defs>
</svg>
